<svg xmlns="http://www.w3.org/2000/svg" width="32" height="32" data-name="Layer 2" viewBox="0 0 39.82 32.48"><g data-name="Layer 1"><path fill="#21e6c1" d="m5.41 27.07 5.41-5.41-.46-.02c-.72-.02-1.44-.13-2.2-.32-3.18-.8-5.88-3.08-7.22-6.1-.5-1.12-.8-2.29-.9-3.54C0 11.15.02 9.96.09 9.45c.39-2.87 1.78-5.33 4.06-7.14.29-.23 1.02-.72 1.37-.92C6.61.77 7.92.32 9.14.13 9.97 0 9.67.01 15.81 0h5.82c.05.01.08.03.08.06 0 .02-2.39 2.44-5.32 5.36l-5.31 5.31.14.02c.08 0 .27.02.43.03.7.03 1.63.21 2.41.44 2.6.79 4.85 2.58 6.21 4.95.73 1.28 1.16 2.53 1.36 4.06.05.37.06.53.06 1.41 0 .81 0 1.05-.05 1.35-.17 1.31-.49 2.39-1.03 3.49-.56 1.15-1.21 2.05-2.12 2.94-.72.71-1.37 1.21-2.22 1.7-1.05.61-2.2 1.03-3.5 1.28l-.37.07H6.19l-6.21.01 5.41-5.41Z"/><path fill="#278ea5" d="M11.23 32.47s.15-.02.32-.03c1.78-.09 3.72-.75 5.28-1.79 1.36-.91 2.56-2.18 3.37-3.59.19-.33.52-1 .65-1.32.12-.29.33-.92.39-1.13.16-.58.26-1.11.34-1.71.04-.29.05-.54.05-1.27 0-1-.03-1.31-.19-2.15-.38-1.92-1.37-3.83-2.74-5.26-1.78-1.86-3.98-2.98-6.53-3.31-.37-.05-1.18-.1-1.27-.08-.03 0-.06.01-.06 0 0-.02 10.21-10.21 10.24-10.22.05-.01.84.26 1.34.45 2.23.89 4.28 2.29 5.91 4.05 1.64 1.78 2.9 3.94 3.6 6.2.1.31.11.36.08.42-.03.05-.02.12.07.46.19.74.34 1.6.43 2.45.05.53.08 2.07.04 2.65a16.54 16.54 0 0 1-.5 3.07c-.06.24-.07.31-.05.35.03.06.02.14-.2.78-.57 1.73-1.54 3.5-2.73 4.98-.81 1.01-1.91 2.07-2.97 2.86-2.1 1.57-4.73 2.66-7.28 3.02-.65.09-.64.09-.64.04 0-.02 0-.04-.02-.04-.01 0-.19.02-.41.04-.32.03-.91.04-3.47.05h-3.06ZM10.2 21.63h.13c.03 0 0 .01-.07.01s-.1 0-.06-.01ZM.02 10.23c0-.06 0-.09.01-.06v.12c0 .03-.01 0-.01-.06ZM21.62.06s-.58-.04-5.49-.04H10.6L16.07 0h5.57c.1.02.11.09.02.09-.06 0-.06 0-.04-.04Z"/><path fill="#1f4287" d="M18.19 32.43c0-.06-.01-.06.53-.13 2.53-.35 5.19-1.44 7.3-3.02 1.06-.79 2.16-1.85 2.97-2.86 1.34-1.66 2.31-3.52 2.93-5.61l.04-.13 3.93 5.89c2.16 3.24 3.93 5.89 3.93 5.9s-4.87.01-10.82.01c-10.76 0-10.82 0-10.82-.05Zm13.66-21.02a16.313 16.313 0 0 0-8.17-9.65c-.8-.41-1.8-.81-2.49-1.01l-.2-.06.33-.33.33-.33h18.16l-3.92 5.88c-2.16 3.24-3.92 5.88-3.93 5.88 0 0-.05-.17-.12-.37Zm-20.98-.6.04-.04c.03-.03.04-.03.04.01 0 .02-.02.04-.04.04s-.04 0-.04-.01Z"/></g></svg>